<?xml version="1.0" encoding="iso-8859-1"?>
<!-- Generator: Adobe Illustrator 19.0.0, SVG Export Plug-In . SVG Version: 6.00 Build 0)  -->
<svg version="1.1" id="Layer_1" xmlns="http://www.w3.org/2000/svg" xmlns:xlink="http://www.w3.org/1999/xlink" x="0px" y="0px"
	 viewBox="0 0 512 512" style="enable-background:new 0 0 512 512;" xml:space="preserve">
<g>
	<path style="fill:#FFC61B;" d="M476.694,512H35.306c-8.03,0-14.54-6.509-14.54-14.54V14.54c0-8.03,6.509-14.54,14.54-14.54h441.389
		c8.03,0,14.54,6.509,14.54,14.54v328.698c0,8.03-6.509,14.54-14.54,14.54s-14.54-6.509-14.54-14.54V29.08H49.845V482.92h412.309
		v-51.955c0-8.03,6.509-14.54,14.54-14.54s14.54,6.509,14.54,14.54v66.495C491.234,505.491,484.725,512,476.694,512z"/>
	<path style="fill:#FFC61B;" d="M411.265,412.064H374.75c-8.03,0-14.54-6.509-14.54-14.54s6.509-14.54,14.54-14.54h36.515
		c8.03,0,14.54,6.509,14.54,14.54S419.296,412.064,411.265,412.064z"/>
	<path style="fill:#FFC61B;" d="M314.158,412.064H100.735c-8.03,0-14.54-6.509-14.54-14.54s6.509-14.54,14.54-14.54H314.16
		c8.03,0,14.54,6.509,14.54,14.54S322.189,412.064,314.158,412.064z"/>
</g>
<path style="fill:#FEE187;" d="M100.735,79.969v256.969h310.531V79.969H100.735z M134.881,335.968l77.135-133.602l77.135,133.602
	H134.881z M320.701,205.274c-20.165,0-36.512-16.347-36.512-36.514s16.347-36.514,36.512-36.514s36.512,16.347,36.512,36.514
	S340.868,205.274,320.701,205.274z"/>
<path style="fill:#FFC61B;" d="M411.265,351.478H100.735c-8.03,0-14.54-6.509-14.54-14.54V79.969c0-8.03,6.509-14.54,14.54-14.54
	h310.531c8.03,0,14.54,6.509,14.54,14.54v256.969C425.805,344.968,419.296,351.478,411.265,351.478z M298.107,322.398h98.619V94.509
	H115.274v227.889h10.653l73.497-127.302c2.597-4.499,7.396-7.27,12.591-7.27s9.995,2.771,12.591,7.27L298.107,322.398z
	 M160.064,321.428h103.904l-51.952-89.982L160.064,321.428z M320.701,219.814c-28.15,0-51.052-22.902-51.052-51.054
	c0-28.151,22.902-51.052,51.052-51.052s51.052,22.902,51.052,51.052C371.755,196.912,348.852,219.814,320.701,219.814z
	 M320.701,146.788c-12.116,0-21.973,9.857-21.973,21.973s9.857,21.974,21.973,21.974s21.973-9.858,21.973-21.974
	S332.817,146.788,320.701,146.788z"/>
<g>
</g>
<g>
</g>
<g>
</g>
<g>
</g>
<g>
</g>
<g>
</g>
<g>
</g>
<g>
</g>
<g>
</g>
<g>
</g>
<g>
</g>
<g>
</g>
<g>
</g>
<g>
</g>
<g>
</g>
</svg>
